<svg xmlns="http://www.w3.org/2000/svg" viewBox="0 0 640 180" role="img" aria-labelledby="title desc">
  <title id="title">Apara Autism Centers logo</title>
  <desc id="desc">Vector recreation of the Apara Autism Centers wordmark based on the provided logo crop.</desc>
  <rect width="640" height="180" fill="none"/>
  <g transform="translate(28,18)" fill="none" stroke="#0B8FA4" stroke-width="5.2" stroke-linecap="round" stroke-linejoin="round">
    <!-- A -->
    <path d="M10 102 L35 32 L60 102"/>
    <path d="M20 73 H50"/>

    <!-- P -->
    <path d="M88 102 V32"/>
    <path d="M88 32 H118 C134 32 145 42 145 56 C145 70 134 80 118 80 H88"/>

    <!-- A -->
    <path d="M164 102 L189 32 L214 102"/>
    <path d="M174 73 H204"/>

    <!-- R -->
    <path d="M242 102 V32"/>
    <path d="M242 32 H272 C288 32 300 42 300 56 C300 69 290 80 274 80 H242"/>
    <path d="M274 80 L300 102"/>

    <!-- A -->
    <path d="M332 102 L357 32 L382 102"/>
    <path d="M342 73 H372"/>
  </g>

  <text x="320" y="150" text-anchor="middle"
        font-family="Arial, Helvetica, sans-serif"
        font-size="24" font-weight="600" letter-spacing="6.5"
        fill="#34B78B">AUTISM CENTERS</text>
</svg>
