<svg xmlns="http://www.w3.org/2000/svg" viewBox="0 0 640 180" role="img" aria-labelledby="title desc">
  <title id="title">Apara Autism Centers</title>
  <desc id="desc">Reconstructed Apara wordmark in a clean scalable SVG suitable for tenant branding.</desc>
  <defs>
    <style>
      .mark { fill: none; stroke: #117d88; stroke-width: 4.5; stroke-linecap: round; stroke-linejoin: round; }
      .sub { fill: #3cae8b; font: 700 18px 'Inter', 'Segoe UI', Arial, sans-serif; letter-spacing: 6px; }
    </style>
  </defs>

  <!-- APARA wordmark reconstructed as line art -->
  <g transform="translate(34 24)">
    <!-- A -->
    <path class="mark" d="M0 92 L24 24 L48 92 M9 66 H39"/>

    <!-- P -->
    <path class="mark" d="M72 92 V24 M72 24 H96 C111 24 121 34 121 47 C121 60 111 70 96 70 H72"/>

    <!-- A -->
    <path class="mark" d="M132 92 L156 24 L180 92 M141 66 H171"/>

    <!-- R -->
    <path class="mark" d="M204 92 V24 M204 24 H228 C243 24 253 34 253 47 C253 59 244 69 229 70 H204 M228 70 L255 92"/>

    <!-- A -->
    <path class="mark" d="M277 92 L301 24 L325 92 M286 66 H316"/>
  </g>

  <text x="320" y="144" text-anchor="middle" class="sub">AUTISM CENTERS</text>
</svg>
