<svg width="1600" height="900" viewBox="0 0 1600 900" fill="none" xmlns="http://www.w3.org/2000/svg" role="img" aria-labelledby="title desc">
  <title id="title">Healthcare Experience Background</title>
  <desc id="desc">Healthcare portal illustration for Healthcare Experience Background.</desc>
  <defs>
    <linearGradient id="bg" x1="0" y1="0" x2="1600" y2="900" gradientUnits="userSpaceOnUse">
      <stop offset="0" stop-color="#0F4C81"/>
      <stop offset="1" stop-color="#22C55E"/>
    </linearGradient>
    <linearGradient id="glass" x1="120" y1="140" x2="760" y2="660" gradientUnits="userSpaceOnUse">
      <stop offset="0" stop-color="#FFFFFF" stop-opacity="0.22"/>
      <stop offset="1" stop-color="#FFFFFF" stop-opacity="0.08"/>
    </linearGradient>
  </defs>
  <rect width="1600" height="900" fill="url(#bg)"/>
  <circle cx="1360" cy="124" r="180" fill="#FFFFFF" fill-opacity="0.08"/>
  <circle cx="1288" cy="764" r="220" fill="#FFFFFF" fill-opacity="0.06"/>
  <circle cx="178" cy="760" r="240" fill="#FFFFFF" fill-opacity="0.05"/>
  <rect x="96" y="128" width="1408" height="644" rx="40" fill="url(#glass)" stroke="#FFFFFF" stroke-opacity="0.24"/>
  <g opacity="0.72">
    <rect x="124" y="158" width="260" height="18" rx="9" fill="#FFFFFF" fill-opacity="0.18"/>
    <rect x="124" y="192" width="176" height="10" rx="5" fill="#FFFFFF" fill-opacity="0.12"/>
  </g>
  <text x="124" y="320" font-family="Inter, Arial, Helvetica, sans-serif" font-size="76" font-weight="800" fill="#FFFFFF">Healthcare Experience Background</text>
  <text x="124" y="382" font-family="Inter, Arial, Helvetica, sans-serif" font-size="30" font-weight="500" fill="#E0F2FE">Abstract reusable image for login pages, promo panels, and section backgrounds.</text>
  <rect x="124" y="442" width="242" height="64" rx="32" fill="#FFFFFF" fill-opacity="0.96"/>
  <text x="171" y="483" font-family="Inter, Arial, Helvetica, sans-serif" font-size="26" font-weight="800" fill="#0F172A">Explore module</text>
  <rect x="390" y="442" width="198" height="64" rx="32" fill="#FFFFFF" fill-opacity="0.14" stroke="#FFFFFF" stroke-opacity="0.28"/>
  <text x="447" y="483" font-family="Inter, Arial, Helvetica, sans-serif" font-size="26" font-weight="700" fill="#FFFFFF">Learn more</text>
  <rect x="124" y="560" width="156" height="40" rx="20" fill="#FFFFFF" fill-opacity="0.14" stroke="#FFFFFF" stroke-opacity="0.22"/>
  <text x="154" y="586" font-family="Inter, Arial, Helvetica, sans-serif" font-size="20" font-weight="700" fill="#FFFFFF">Abstract background</text>

    <g transform="translate(820,44)">
      <circle cx="100" cy="82" r="46" fill="#DBEAFE" fill-opacity="0.9"/>
      <circle cx="200" cy="132" r="60" fill="#CCFBF1" fill-opacity="0.82"/>
      <circle cx="316" cy="84" r="38" fill="#DCFCE7" fill-opacity="0.82"/>
      <path d="M68 154c56-24 118-22 174 8" stroke="#F8FAFC" stroke-width="14" stroke-linecap="round"/>
      <path d="M172 70c36-12 72-8 120 24" stroke="#F8FAFC" stroke-width="10" stroke-linecap="round"/>
      <rect x="150" y="96" width="56" height="56" rx="18" fill="#F8FAFC" fill-opacity="0.94"/>
      <path d="M178 110v28M164 124h28" stroke="#0284C7" stroke-width="8" stroke-linecap="round"/>
    </g>
</svg>