<svg width="1600" height="900" viewBox="0 0 1600 900" fill="none" xmlns="http://www.w3.org/2000/svg" role="img" aria-labelledby="title desc">
  <title id="title">Healthcare on Every Device</title>
  <desc id="desc">Healthcare portal illustration for Healthcare on Every Device.</desc>
  <defs>
    <linearGradient id="bg" x1="0" y1="0" x2="1600" y2="900" gradientUnits="userSpaceOnUse">
      <stop offset="0" stop-color="#2563EB"/>
      <stop offset="1" stop-color="#14B8A6"/>
    </linearGradient>
    <linearGradient id="glass" x1="120" y1="140" x2="760" y2="660" gradientUnits="userSpaceOnUse">
      <stop offset="0" stop-color="#FFFFFF" stop-opacity="0.22"/>
      <stop offset="1" stop-color="#FFFFFF" stop-opacity="0.08"/>
    </linearGradient>
  </defs>
  <rect width="1600" height="900" fill="url(#bg)"/>
  <circle cx="1360" cy="124" r="180" fill="#FFFFFF" fill-opacity="0.08"/>
  <circle cx="1288" cy="764" r="220" fill="#FFFFFF" fill-opacity="0.06"/>
  <circle cx="178" cy="760" r="240" fill="#FFFFFF" fill-opacity="0.05"/>
  <rect x="96" y="128" width="1408" height="644" rx="40" fill="url(#glass)" stroke="#FFFFFF" stroke-opacity="0.24"/>
  <g opacity="0.72">
    <rect x="124" y="158" width="260" height="18" rx="9" fill="#FFFFFF" fill-opacity="0.18"/>
    <rect x="124" y="192" width="176" height="10" rx="5" fill="#FFFFFF" fill-opacity="0.12"/>
  </g>
  <text x="124" y="320" font-family="Inter, Arial, Helvetica, sans-serif" font-size="76" font-weight="800" fill="#FFFFFF">Healthcare on Every Device</text>
  <text x="124" y="382" font-family="Inter, Arial, Helvetica, sans-serif" font-size="30" font-weight="500" fill="#E0F2FE">Use where you want to emphasize responsive design and mobile self-service.</text>
  <rect x="124" y="442" width="242" height="64" rx="32" fill="#FFFFFF" fill-opacity="0.96"/>
  <text x="171" y="483" font-family="Inter, Arial, Helvetica, sans-serif" font-size="26" font-weight="800" fill="#0F172A">Explore module</text>
  <rect x="390" y="442" width="198" height="64" rx="32" fill="#FFFFFF" fill-opacity="0.14" stroke="#FFFFFF" stroke-opacity="0.28"/>
  <text x="447" y="483" font-family="Inter, Arial, Helvetica, sans-serif" font-size="26" font-weight="700" fill="#FFFFFF">Learn more</text>
  <rect x="124" y="560" width="156" height="40" rx="20" fill="#FFFFFF" fill-opacity="0.14" stroke="#FFFFFF" stroke-opacity="0.22"/>
  <text x="154" y="586" font-family="Inter, Arial, Helvetica, sans-serif" font-size="20" font-weight="700" fill="#FFFFFF">Mobile experience</text>

    <g transform="translate(858,36)">
      <rect x="36" y="14" width="126" height="226" rx="28" fill="#F8FAFC" fill-opacity="0.97"/>
      <rect x="50" y="36" width="98" height="170" rx="16" fill="#DBEAFE"/>
      <rect x="62" y="54" width="56" height="8" rx="4" fill="#93C5FD"/>
      <rect x="62" y="72" width="70" height="7" rx="3.5" fill="#CBD5E1"/>
      <rect x="62" y="90" width="52" height="7" rx="3.5" fill="#CBD5E1"/>
      <rect x="62" y="116" width="74" height="36" rx="12" fill="#DCFCE7"/>
      <circle cx="99" cy="188" r="10" fill="#F8FAFC"/>
      <circle cx="220" cy="88" r="34" fill="#CCFBF1"/>
      <path d="M204 89h32M220 73v32" stroke="#0F766E" stroke-width="7" stroke-linecap="round"/>
    </g>
</svg>