<svg width="1600" height="900" viewBox="0 0 1600 900" fill="none" xmlns="http://www.w3.org/2000/svg" role="img" aria-labelledby="title desc">
  <title id="title">Provider Collaboration Hub</title>
  <desc id="desc">Healthcare portal illustration for Provider Collaboration Hub.</desc>
  <defs>
    <linearGradient id="bg" x1="0" y1="0" x2="1600" y2="900" gradientUnits="userSpaceOnUse">
      <stop offset="0" stop-color="#1E3A8A"/>
      <stop offset="1" stop-color="#0EA5E9"/>
    </linearGradient>
    <linearGradient id="glass" x1="120" y1="140" x2="760" y2="660" gradientUnits="userSpaceOnUse">
      <stop offset="0" stop-color="#FFFFFF" stop-opacity="0.22"/>
      <stop offset="1" stop-color="#FFFFFF" stop-opacity="0.08"/>
    </linearGradient>
  </defs>
  <rect width="1600" height="900" fill="url(#bg)"/>
  <circle cx="1360" cy="124" r="180" fill="#FFFFFF" fill-opacity="0.08"/>
  <circle cx="1288" cy="764" r="220" fill="#FFFFFF" fill-opacity="0.06"/>
  <circle cx="178" cy="760" r="240" fill="#FFFFFF" fill-opacity="0.05"/>
  <rect x="96" y="128" width="1408" height="644" rx="40" fill="url(#glass)" stroke="#FFFFFF" stroke-opacity="0.24"/>
  <g opacity="0.72">
    <rect x="124" y="158" width="260" height="18" rx="9" fill="#FFFFFF" fill-opacity="0.18"/>
    <rect x="124" y="192" width="176" height="10" rx="5" fill="#FFFFFF" fill-opacity="0.12"/>
  </g>
  <text x="124" y="320" font-family="Inter, Arial, Helvetica, sans-serif" font-size="76" font-weight="800" fill="#FFFFFF">Provider Collaboration Hub</text>
  <text x="124" y="382" font-family="Inter, Arial, Helvetica, sans-serif" font-size="30" font-weight="500" fill="#E0F2FE">Ideal for provider landing pages, eligibility, claims, and prior auth sections.</text>
  <rect x="124" y="442" width="242" height="64" rx="32" fill="#FFFFFF" fill-opacity="0.96"/>
  <text x="171" y="483" font-family="Inter, Arial, Helvetica, sans-serif" font-size="26" font-weight="800" fill="#0F172A">Explore module</text>
  <rect x="390" y="442" width="198" height="64" rx="32" fill="#FFFFFF" fill-opacity="0.14" stroke="#FFFFFF" stroke-opacity="0.28"/>
  <text x="447" y="483" font-family="Inter, Arial, Helvetica, sans-serif" font-size="26" font-weight="700" fill="#FFFFFF">Learn more</text>
  <rect x="124" y="560" width="156" height="40" rx="20" fill="#FFFFFF" fill-opacity="0.14" stroke="#FFFFFF" stroke-opacity="0.22"/>
  <text x="154" y="586" font-family="Inter, Arial, Helvetica, sans-serif" font-size="20" font-weight="700" fill="#FFFFFF">Provider portal</text>

    <g transform="translate(828,52)">
      <circle cx="102" cy="56" r="30" fill="#F8FAFC" fill-opacity="0.95"/>
      <rect x="70" y="88" width="64" height="104" rx="28" fill="#F8FAFC" fill-opacity="0.95"/>
      <path d="M82 95c9 12 20 18 40 0" stroke="#93C5FD" stroke-width="8" stroke-linecap="round"/>
      <circle cx="210" cy="72" r="24" fill="#E0F2FE"/>
      <rect x="182" y="98" width="56" height="92" rx="24" fill="#DBEAFE"/>
      <path d="M148 128h132a18 18 0 0 1 18 18v34a18 18 0 0 1-18 18H148a18 18 0 0 1-18-18v-34a18 18 0 0 1 18-18Z" fill="#F8FAFC" fill-opacity="0.95"/>
      <rect x="164" y="144" width="84" height="8" rx="4" fill="#93C5FD"/>
      <rect x="164" y="162" width="62" height="8" rx="4" fill="#CBD5E1"/>
      <circle cx="258" cy="161" r="16" fill="#CCFBF1"/>
      <path d="M251 161l5 5 9-11" stroke="#0F766E" stroke-width="4" stroke-linecap="round" stroke-linejoin="round"/>
    </g>
</svg>