<svg width="1600" height="900" viewBox="0 0 1600 900" fill="none" xmlns="http://www.w3.org/2000/svg" role="img" aria-labelledby="title desc">
  <title id="title">Preventive Care and Wellness</title>
  <desc id="desc">Healthcare portal illustration for Preventive Care and Wellness.</desc>
  <defs>
    <linearGradient id="bg" x1="0" y1="0" x2="1600" y2="900" gradientUnits="userSpaceOnUse">
      <stop offset="0" stop-color="#0F766E"/>
      <stop offset="1" stop-color="#22C55E"/>
    </linearGradient>
    <linearGradient id="glass" x1="120" y1="140" x2="760" y2="660" gradientUnits="userSpaceOnUse">
      <stop offset="0" stop-color="#FFFFFF" stop-opacity="0.22"/>
      <stop offset="1" stop-color="#FFFFFF" stop-opacity="0.08"/>
    </linearGradient>
  </defs>
  <rect width="1600" height="900" fill="url(#bg)"/>
  <circle cx="1360" cy="124" r="180" fill="#FFFFFF" fill-opacity="0.08"/>
  <circle cx="1288" cy="764" r="220" fill="#FFFFFF" fill-opacity="0.06"/>
  <circle cx="178" cy="760" r="240" fill="#FFFFFF" fill-opacity="0.05"/>
  <rect x="96" y="128" width="1408" height="644" rx="40" fill="url(#glass)" stroke="#FFFFFF" stroke-opacity="0.24"/>
  <g opacity="0.72">
    <rect x="124" y="158" width="260" height="18" rx="9" fill="#FFFFFF" fill-opacity="0.18"/>
    <rect x="124" y="192" width="176" height="10" rx="5" fill="#FFFFFF" fill-opacity="0.12"/>
  </g>
  <text x="124" y="320" font-family="Inter, Arial, Helvetica, sans-serif" font-size="76" font-weight="800" fill="#FFFFFF">Preventive Care and Wellness</text>
  <text x="124" y="382" font-family="Inter, Arial, Helvetica, sans-serif" font-size="30" font-weight="500" fill="#E0F2FE">Good for wellness reminders, care gaps, annual visits, and engagement pages.</text>
  <rect x="124" y="442" width="242" height="64" rx="32" fill="#FFFFFF" fill-opacity="0.96"/>
  <text x="171" y="483" font-family="Inter, Arial, Helvetica, sans-serif" font-size="26" font-weight="800" fill="#0F172A">Explore module</text>
  <rect x="390" y="442" width="198" height="64" rx="32" fill="#FFFFFF" fill-opacity="0.14" stroke="#FFFFFF" stroke-opacity="0.28"/>
  <text x="447" y="483" font-family="Inter, Arial, Helvetica, sans-serif" font-size="26" font-weight="700" fill="#FFFFFF">Learn more</text>
  <rect x="124" y="560" width="156" height="40" rx="20" fill="#FFFFFF" fill-opacity="0.14" stroke="#FFFFFF" stroke-opacity="0.22"/>
  <text x="154" y="586" font-family="Inter, Arial, Helvetica, sans-serif" font-size="20" font-weight="700" fill="#FFFFFF">Wellness</text>

    <g transform="translate(820,52)">
      <circle cx="92" cy="62" r="26" fill="#F8FAFC" fill-opacity="0.96"/>
      <path d="M90 92c-10 20-38 30-38 64v18h82v-18c0-35-24-44-44-64Z" fill="#F8FAFC" fill-opacity="0.96"/>
      <path d="M164 170c22-50 58-84 112-102" stroke="#BBF7D0" stroke-width="18" stroke-linecap="round"/>
      <path d="M246 60c28 18 44 42 49 76" stroke="#A5F3FC" stroke-width="18" stroke-linecap="round"/>
      <circle cx="292" cy="98" r="32" fill="#DCFCE7" fill-opacity="0.95"/>
      <path d="M278 99l9 10 18-22" stroke="#16A34A" stroke-width="6" stroke-linecap="round" stroke-linejoin="round"/>
    </g>
</svg>